<svg xmlns="http://www.w3.org/2000/svg" fill="currentColor" viewBox="0 0 1024 1024" stroke-width="1.0" stroke="currentColor">
    <path d="M639.93728 846.704l-272-704-0.096 0.032A47.904 47.904 0 0 0 323.16928 112a47.92 47.92 0 0 0-44.672 30.736l-0.112-0.032-272 704 0.112 0.048C4.41728 852.112 3.16928 857.904 3.16928 864a47.92 47.92 0 1 0 92.672 17.264l0.112 0.032L158.25728 720h329.808l62.32 161.296 0.112-0.032A47.92 47.92 0 0 0 643.16928 864c0-6.112-1.248-11.888-3.328-17.264l0.096-0.032zM195.36128 624L323.16928 293.184 450.97728 624H195.36128zM979.16928 464h-96v-96a48 48 0 1 0-96 0v96h-96a48 48 0 1 0 0 96h96v96a48 48 0 1 0 96 0v-96h96a48 48 0 1 0 0-96z" />
</svg>