<svg xmlns="http://www.w3.org/2000/svg" fill="currentColor" viewBox="0 0 1024 1024" stroke-width="20.0" stroke="currentColor">
    <path d="M621.677056 457.179135l0 36.569088q0 7.428096-5.428224 12.85632t-12.85632 5.428224l-329.121791 0q-7.428096 0-12.85632-5.428224t-5.428224-12.85632l0-36.569088q0-7.428096 5.428224-12.85632t12.85632-5.428224l329.121791 0q7.428096 0 12.85632 5.428224t5.428224 12.85632zm73.138176 18.284544q0-105.70752-75.138048-180.845568t-180.845568-75.138048-180.845568 75.138048-75.138048 180.845568 75.138048 180.845568 180.845568 75.138048 180.845568-75.138048 75.138048-180.845568zm292.552703 475.398143q0 30.283776-21.4272 51.710976t-51.710976 21.4272q-30.855168 0-51.42528-21.712896l-195.987456-195.416064q-102.279168 70.852608-227.985408 70.852608-81.709056 0-156.275712-31.712256t-128.5632-85.7088-85.7088-128.5632-31.712256-156.275712 31.712256-156.275712 85.7088-128.5632 128.5632-85.7088 156.275712-31.712256 156.275712 31.712256 128.5632 85.7088 85.7088 128.5632 31.712256 156.275712q0 125.70624-70.852608 227.985408l195.987456 195.987456q21.141504 21.141504 21.141504 51.42528z" fill="#272636" />
</svg>