<svg xmlns="http://www.w3.org/2000/svg" fill="currentColor" viewBox="0 0 1024 1024" stroke-width="1.5" stroke="black" class="w-6 h-6">
    <path d="M682.666667 405.333333H341.333333c-46.933333 0-85.333333-38.4-85.333333-85.333333V192c0-46.933333 38.4-85.333333 85.333333-85.333333h341.333334c46.933333 0 85.333333 38.4 85.333333 85.333333v128c0 46.933333-38.4 85.333333-85.333333 85.333333zM341.333333 149.333333c-23.466667 0-42.666667 19.2-42.666666 42.666667v128c0 23.466667 19.2 42.666667 42.666666 42.666667h341.333334c23.466667 0 42.666667-19.2 42.666666-42.666667V192c0-23.466667-19.2-42.666667-42.666666-42.666667H341.333333zM682.666667 917.333333H341.333333c-46.933333 0-85.333333-38.4-85.333333-85.333333v-128c0-46.933333 38.4-85.333333 85.333333-85.333333h341.333334c46.933333 0 85.333333 38.4 85.333333 85.333333v128c0 46.933333-38.4 85.333333-85.333333 85.333333zM341.333333 661.333333c-23.466667 0-42.666667 19.2-42.666666 42.666667v128c0 23.466667 19.2 42.666667 42.666666 42.666667h341.333334c23.466667 0 42.666667-19.2 42.666666-42.666667v-128c0-23.466667-19.2-42.666667-42.666666-42.666667H341.333333zM128 533.333333H106.666667c-12.8 0-21.333333-8.533333-21.333334-21.333333s8.533333-21.333333 21.333334-21.333333h21.333333c12.8 0 21.333333 8.533333 21.333333 21.333333s-8.533333 21.333333-21.333333 21.333333zM806.4 533.333333h-44.8c-12.8 0-21.333333-8.533333-21.333333-21.333333s8.533333-21.333333 21.333333-21.333333h44.8c12.8 0 21.333333 8.533333 21.333333 21.333333s-10.666667 21.333333-21.333333 21.333333z m-136.533333 0h-44.8c-12.8 0-21.333333-8.533333-21.333334-21.333333s8.533333-21.333333 21.333334-21.333333h44.8c12.8 0 21.333333 8.533333 21.333333 21.333333s-8.533333 21.333333-21.333333 21.333333z m-134.4 0H490.666667c-12.8 0-21.333333-8.533333-21.333334-21.333333s8.533333-21.333333 21.333334-21.333333h44.8c12.8 0 21.333333 8.533333 21.333333 21.333333s-10.666667 21.333333-21.333333 21.333333z m-136.533334 0h-44.8c-12.8 0-21.333333-8.533333-21.333333-21.333333s8.533333-21.333333 21.333333-21.333333h44.8c12.8 0 21.333333 8.533333 21.333334 21.333333s-8.533333 21.333333-21.333334 21.333333z m-134.4 0h-44.8c-12.8 0-21.333333-8.533333-21.333333-21.333333s8.533333-21.333333 21.333333-21.333333h44.8c12.8 0 21.333333 8.533333 21.333334 21.333333s-10.666667 21.333333-21.333334 21.333333zM917.333333 533.333333h-21.333333c-12.8 0-21.333333-8.533333-21.333333-21.333333s8.533333-21.333333 21.333333-21.333333h21.333333c12.8 0 21.333333 8.533333 21.333334 21.333333s-8.533333 21.333333-21.333334 21.333333z" />
</svg>